<svg id="Livello_14" data-name="Livello 14" xmlns="http://www.w3.org/2000/svg" viewBox="0 0 375.00014 204.5">
  <title>LogShifter</title>
  <rect x="89.00014" y="55" width="231" height="149" style="fill: #e6e6e6;stroke: #000;stroke-miterlimit: 10"/>
  <text transform="translate(140.24017 129.49998)" style="font-size: 15px;font-family: SpaceMono-Bold, Space Mono;font-weight: 700">LOG_SHIFTER_32</text>
  <text transform="translate(102.66675 105.16682)" style="font-size: 12px;font-family: SpaceMono-Regular, Space Mono">X</text>
  <text transform="translate(301.32309 129.49998)" style="font-size: 12px;font-family: SpaceMono-Regular, Space Mono">Y</text>
  <text transform="translate(102.66693 164.49998)" style="font-size: 12px;font-family: SpaceMono-Regular, Space Mono">SHAMT</text>
  <text transform="translate(175.12378 74.33333)" style="font-size: 12px;font-family: SpaceMono-Regular, Space Mono">SHIFT_OP</text>
  <g>
    <line x1="34.00014" y1="105.16682" x2="82.35561" y2="105.16682" style="fill: none;stroke: #000;stroke-miterlimit: 10"/>
    <polygon points="80.87 107.346 89 105.167 80.87 102.988 80.87 107.346"/>
  </g>
  <g>
    <line x1="34.00014" y1="164.50002" x2="82.35561" y2="164.50002" style="fill: none;stroke: #000;stroke-miterlimit: 10"/>
    <polygon points="80.87 166.679 89 164.5 80.87 162.321 80.87 166.679"/>
  </g>
  <g>
    <line x1="320.00014" y1="129.49998" x2="368.35561" y2="129.49998" style="fill: none;stroke: #000;stroke-miterlimit: 10"/>
    <polygon points="366.87 131.679 375 129.5 366.87 127.321 366.87 131.679"/>
  </g>
  <g>
    <line x1="204.49978" x2="204.49978" y2="48.35547" style="fill: none;stroke: #29abe2;stroke-miterlimit: 10"/>
    <polygon points="202.321 46.869 204.5 55 206.679 46.869 202.321 46.869" style="fill: #29abe2"/>
  </g>
  <text x="-633.91895" y="-363.75022"></text>
  <text transform="translate(52.31996 91.99998)" style="font-size: 15px;font-family: SpaceMono-Regular, Space Mono">32</text>
  <text transform="translate(56.91029 151.49998)" style="font-size: 15px;font-family: SpaceMono-Regular, Space Mono">5</text>
  <text transform="translate(215.91031 35.75001)" style="font-size: 15px;font-family: SpaceMono-Regular, Space Mono">2</text>
  <text transform="translate(340.63229 119.49999)" style="font-size: 15px;font-family: SpaceMono-Regular, Space Mono">32</text>
  <line x1="57.37514" y1="109.29183" x2="65.62514" y2="101.04183" style="fill: none;stroke: #000;stroke-miterlimit: 10"/>
  <line x1="57.37514" y1="168.625" x2="65.62514" y2="160.375" style="fill: none;stroke: #000;stroke-miterlimit: 10"/>
  <line x1="200.37481" y1="35.75" x2="208.62481" y2="27.5" style="fill: none;stroke: #000;stroke-miterlimit: 10"/>
  <line x1="341.56247" y1="133.625" x2="349.81247" y2="125.375" style="fill: none;stroke: #000;stroke-miterlimit: 10"/>
</svg>
