<svg id="Livello_14" data-name="Livello 14" xmlns="http://www.w3.org/2000/svg" viewBox="0 0 345.12512 204.50001">
  <title>ShifterNM</title>
  <text x="-1187.91895" y="-756.37521"></text>
  <rect x="59.12514" y="55.00001" width="231" height="149" style="fill: #e6e6e6;stroke: #000;stroke-miterlimit: 10"/>
  <text transform="translate(124.13519 129.5)" style="font-size: 15px;font-family: SpaceMono-Bold, Space Mono;font-weight: 700">SHIFTER_N_M</text>
  <text transform="translate(72.79175 105.16684)" style="font-size: 12px;font-family: SpaceMono-Regular, Space Mono">X</text>
  <text transform="translate(271.44809 129.5)" style="font-size: 12px;font-family: SpaceMono-Regular, Space Mono">Y</text>
  <text transform="translate(72.79193 164.5)" style="font-size: 12px;font-family: SpaceMono-Regular, Space Mono">FILL</text>
  <text transform="translate(152.59302 74.33334)" style="font-size: 12px;font-family: SpaceMono-Regular, Space Mono">ENABLE</text>
  <g>
    <line x1="4.12512" y1="105.16684" x2="52.48059" y2="105.16684" style="fill: none;stroke: #000;stroke-miterlimit: 10"/>
    <polygon points="50.995 107.346 59.125 105.167 50.995 102.988 50.995 107.346"/>
  </g>
  <g>
    <line x1="4.12512" y1="164.50003" x2="52.48059" y2="164.50003" style="fill: none;stroke: #000;stroke-miterlimit: 10"/>
    <polygon points="50.995 166.679 59.125 164.5 50.995 162.321 50.995 166.679"/>
  </g>
  <g>
    <line x1="290.12512" y1="129.50003" x2="338.48059" y2="129.50003" style="fill: none;stroke: #000;stroke-miterlimit: 10"/>
    <polygon points="336.995 131.679 345.125 129.5 336.995 127.321 336.995 131.679"/>
  </g>
  <g>
    <line x1="174.62476" x2="174.62476" y2="48.35547" style="fill: none;stroke: #000;stroke-miterlimit: 10"/>
    <polygon points="172.446 46.869 174.625 55 176.804 46.869 172.446 46.869"/>
  </g>
  <text transform="translate(27.03528 92)" style="font-size: 15px;font-family: SpaceMono-Regular, Space Mono">N</text>
  <text transform="translate(27.03528 151.5)" style="font-size: 15px;font-family: SpaceMono-Regular, Space Mono">1</text>
  <text transform="translate(186.03531 35.75003)" style="font-size: 15px;font-family: SpaceMono-Regular, Space Mono">1</text>
  <text transform="translate(315.34763 119.5)" style="font-size: 15px;font-family: SpaceMono-Regular, Space Mono">N</text>
  <line x1="27.50014" y1="109.29184" x2="35.75014" y2="101.04184" style="fill: none;stroke: #000;stroke-miterlimit: 10"/>
  <line x1="27.50014" y1="168.62501" x2="35.75014" y2="160.37501" style="fill: none;stroke: #000;stroke-miterlimit: 10"/>
  <line x1="170.49981" y1="35.75001" x2="178.74981" y2="27.50001" style="fill: none;stroke: #000;stroke-miterlimit: 10"/>
  <line x1="311.68747" y1="133.62501" x2="319.93747" y2="125.37501" style="fill: none;stroke: #000;stroke-miterlimit: 10"/>
</svg>
